<?xml version="1.0" encoding="iso-8859-1"?>
<!-- Uploaded to: SVG Repo, www.svgrepo.com, Generator: SVG Repo Mixer Tools -->
<svg height="800px" width="800px" version="1.1" id="Layer_1" xmlns="http://www.w3.org/2000/svg" xmlns:xlink="http://www.w3.org/1999/xlink" 
	 viewBox="0 0 512 512" xml:space="preserve">
<g>
	<path style="fill:#FBD971;" d="M512,256c0,141.383-114.617,256-256,256S0,397.383,0,256S114.617,0,256,0S512,114.617,512,256"/>
	<g>
		<path style="fill:#E57E25;" d="M156.698,229.44c-14.442,0-28.442-4.458-38.947-13.709c-3.655-3.222-4.008-8.801-0.794-12.465
			c3.231-3.663,8.81-3.999,12.465-0.794c8.36,7.362,20.621,10.611,33.757,8.96c5.782-0.742,11.361-2.366,16.49-4.723
			c-10.47-2.463-21.266-6.656-30.994-12.217c-20.815-11.9-32.856-27.471-33.898-43.864c-0.309-4.864,3.381-9.057,8.254-9.366
			c4.793-0.282,9.048,3.39,9.366,8.245c1.395,21.884,42.955,43.767,70.082,41.958c3.672-0.132,6.903,1.73,8.474,4.926
			c1.58,3.204,1.068,7.044-1.289,9.719C196.202,221.406,176.057,229.44,156.698,229.44"/>
		<path style="fill:#E57E25;" d="M355.302,229.44c-19.359,0-39.503-8.033-52.966-23.331c-2.357-2.675-2.869-6.515-1.289-9.719
			c1.563-3.196,4.723-5.067,8.474-4.926c27.154,1.783,68.687-20.074,70.082-41.958c0.318-4.855,4.493-8.519,9.366-8.245
			c4.873,0.309,8.563,4.502,8.254,9.366c-1.042,16.393-13.082,31.965-33.898,43.864c-9.728,5.561-20.524,9.754-30.994,12.217
			c5.129,2.357,10.708,3.981,16.49,4.723c13.109,1.642,25.397-1.598,33.757-8.96c3.655-3.204,9.234-2.869,12.465,0.794
			c3.213,3.663,2.86,9.242-0.794,12.465C383.744,224.973,369.735,229.44,355.302,229.44"/>
		<path style="fill:#E57E25;" d="M167.724,150.069c-4.882,0-8.828-3.946-8.828-8.828s3.946-8.828,8.828-8.828
			c19.474,0,35.31-15.837,35.31-35.31c0-4.882,3.946-8.828,8.828-8.828c4.882,0,8.828,3.946,8.828,8.828
			C220.69,126.314,196.935,150.069,167.724,150.069"/>
		<path style="fill:#E57E25;" d="M344.276,150.069c-29.21,0-52.966-23.755-52.966-52.966c0-4.882,3.946-8.828,8.828-8.828
			s8.828,3.946,8.828,8.828c0,19.474,15.837,35.31,35.31,35.31c4.882,0,8.828,3.946,8.828,8.828S349.158,150.069,344.276,150.069"/>
	</g>
	<path style="fill:#FB7B76;" d="M317.793,397.241v17.655c0,34.127-27.666,61.793-61.793,61.793s-61.793-27.666-61.793-61.793
		v-17.655v-33.668c0-15.289,12.226-28.628,27.507-28.107c13.18,0.45,25.15,9.437,34.286,17.638
		c9.137-8.201,21.107-17.187,34.286-17.638c15.281-0.521,27.507,12.818,27.507,28.107V397.241"/>
	<path style="fill:#C03A2B;" d="M386.222,360.898c-21.204-51.209-71.671-87.243-130.551-87.243
		c-57.838,0-107.555,34.772-129.395,84.542c-10.222,23.278,10.266,47.907,34.957,41.816c11.185-2.763,22.175-4.873,32.971-6.532
		v-29.908c0-15.289,12.226-28.628,27.507-28.107c13.18,0.45,25.15,9.437,34.286,17.638c9.145-8.201,21.107-17.187,34.295-17.638
		c15.281-0.521,27.498,12.818,27.498,28.107v30.349c12.526,1.96,23.923,4.29,33.845,6.7
		C374.967,406.281,395.411,383.073,386.222,360.898"/>
</g>
</svg>